<?xml version="1.0" encoding="utf-8"?>
<svg width="345" height="58" viewBox="0 0 345 58" fill="none" xmlns="http://www.w3.org/2000/svg">
  <defs/>
  <rect x="1" y="1" width="343" height="56" rx="16"/>
  <rect x="1" y="1" width="343" height="56" rx="16" stroke="#F1F1FA" stroke-linecap="round" stroke-linejoin="bevel" stroke-dasharray="8 8"/>
  <path d="M 98.784 31.814 L 98.783 31.814 C 98.152 32.443 97.722 33.246 97.548 34.12 C 97.374 34.994 97.463 35.9 97.804 36.723 C 98.145 37.546 98.723 38.25 99.465 38.744 C 100.206 39.238 101.076 39.501 101.967 39.5 C 102.559 39.493 103.145 39.368 103.689 39.134 C 104.234 38.899 104.728 38.558 105.141 38.132 L 105.147 38.126 L 113.636 29.647 C 113.637 29.646 113.637 29.646 113.637 29.646 C 114.856 28.427 115.54 26.774 115.54 25.05 C 115.54 23.326 114.856 21.673 113.636 20.454 C 112.417 19.235 110.764 18.55 109.04 18.55 C 107.316 18.55 105.663 19.234 104.444 20.453 C 104.444 20.453 104.444 20.453 104.444 20.454 L 99.51 25.437 C 99.435 25.531 99.395 25.649 99.4 25.77 C 99.405 25.896 99.457 26.015 99.546 26.104 C 99.635 26.193 99.754 26.245 99.88 26.25 C 100 26.255 100.118 26.216 100.212 26.141 L 105.145 21.158 L 105.147 21.156 C 106.179 20.125 107.579 19.546 109.039 19.547 C 110.498 19.548 111.898 20.129 112.929 21.162 C 113.96 22.194 114.539 23.595 114.538 25.054 C 114.537 26.513 113.956 27.912 112.924 28.944 C 97.352 47.526 96.914 34.045 98.784 31.814 Z M 98.784 31.814 L 107.264 23.334 L 107.264 23.333 M 98.784 31.814 L 107.264 23.333 M 107.264 23.333 C 107.733 22.863 108.369 22.599 109.032 22.598 C 109.696 22.598 110.332 22.86 110.802 23.329 C 111.272 23.798 111.536 24.434 111.537 25.097 C 111.537 25.76 111.275 26.397 110.806 26.867 L 102.318 35.355 C 102.317 35.356 102.317 35.356 102.317 35.356 C 102.223 35.449 102.097 35.501 101.965 35.501 C 101.833 35.501 101.706 35.449 101.613 35.355 L 101.612 35.355 M 107.264 23.333 C 117.764 21.56 102.873 35.142 101.612 35.355 M 101.612 35.355 C 101.565 35.309 101.528 35.253 101.503 35.192 C 101.477 35.131 101.464 35.066 101.464 35 C 101.464 34.934 101.477 34.869 101.503 34.808 C 101.528 34.747 101.565 34.692 101.612 34.645 L 101.614 34.644 M 101.612 35.355 L 101.614 34.644 M 101.614 34.644 L 110.092 26.165 C 110.092 26.165 110.093 26.165 110.093 26.164 C 110.233 26.025 110.344 25.859 110.42 25.677 C 110.497 25.494 110.536 25.298 110.536 25.1 C 110.536 24.902 110.497 24.706 110.42 24.523 C 110.344 24.34 110.233 24.175 110.092 24.035 C 109.811 23.756 109.431 23.599 109.035 23.599 C 108.639 23.599 108.259 23.756 107.978 24.035 L 107.977 24.035 M 101.614 34.644 C 109.045 30.581 115.408 19.972 107.977 24.035 M 107.977 24.035 L 99.488 32.475 L 99.486 32.477 M 107.977 24.035 L 99.486 32.477 M 99.486 32.477 C 98.83 33.134 98.462 34.025 98.463 34.954 M 99.486 32.477 L 98.463 34.954 M 98.463 34.954 C 98.464 35.883 98.834 36.773 99.492 37.429 M 98.463 34.954 L 99.492 37.429 M 99.492 37.429 C 100.149 38.085 101.04 38.453 101.969 38.452 M 99.492 37.429 L 101.969 38.452 M 101.969 38.452 C 102.898 38.451 103.788 38.081 104.444 37.424 L 101.969 38.452 Z M 104.444 37.423 L 112.923 28.944 L 104.444 37.423 Z" stroke="#91919F"/>
  <path d="M134.386 35L135.557 31.7045H140.261L141.432 35H142.909L138.636 23.3636H137.182L132.909 35H134.386ZM136 30.4545L137.864 25.2045H137.955L139.818 30.4545H136ZM147.835 35.1818C149.517 35.1818 150.085 34.1364 150.381 33.6591H150.54V35H151.835V23.3636H150.494V27.6591H150.381C150.085 27.2045 149.562 26.1591 147.858 26.1591C145.653 26.1591 144.131 27.9091 144.131 30.6591C144.131 33.4318 145.653 35.1818 147.835 35.1818ZM148.017 33.9773C146.335 33.9773 145.472 32.5 145.472 30.6364C145.472 28.7955 146.312 27.3636 148.017 27.3636C149.653 27.3636 150.517 28.6818 150.517 30.6364C150.517 32.6136 149.631 33.9773 148.017 33.9773ZM157.773 35.1818C159.455 35.1818 160.023 34.1364 160.318 33.6591H160.477V35H161.773V23.3636H160.432V27.6591H160.318C160.023 27.2045 159.5 26.1591 157.795 26.1591C155.591 26.1591 154.068 27.9091 154.068 30.6591C154.068 33.4318 155.591 35.1818 157.773 35.1818ZM157.955 33.9773C156.273 33.9773 155.409 32.5 155.409 30.6364C155.409 28.7955 156.25 27.3636 157.955 27.3636C159.591 27.3636 160.455 28.6818 160.455 30.6364C160.455 32.6136 159.568 33.9773 157.955 33.9773ZM171.483 35.2045C173.006 35.2045 173.801 34.3864 174.074 33.8182H174.142V35H175.483V29.25C175.483 26.4773 173.369 26.1591 172.256 26.1591C170.938 26.1591 169.438 26.6136 168.756 28.2045L170.028 28.6591C170.324 28.0227 171.023 27.3409 172.301 27.3409C173.534 27.3409 174.142 27.9943 174.142 29.1136V29.1591C174.142 29.8068 173.483 29.75 171.892 29.9545C170.273 30.1648 168.506 30.5227 168.506 32.5227C168.506 34.2273 169.824 35.2045 171.483 35.2045ZM171.688 34C170.619 34 169.847 33.5227 169.847 32.5909C169.847 31.5682 170.778 31.25 171.824 31.1136C172.392 31.0455 173.915 30.8864 174.142 30.6136V31.8409C174.142 32.9318 173.278 34 171.688 34ZM181.726 26.2727H179.862V24.1818H178.521V26.2727H177.203V27.4091H178.521V32.8636C178.521 34.3864 179.749 35.1136 180.885 35.1136C181.385 35.1136 181.703 35.0227 181.885 34.9545L181.612 33.75C181.499 33.7727 181.317 33.8182 181.021 33.8182C180.43 33.8182 179.862 33.6364 179.862 32.5V27.4091H181.726V26.2727ZM187.538 26.2727H185.675V24.1818H184.334V26.2727H183.016V27.4091H184.334V32.8636C184.334 34.3864 185.561 35.1136 186.697 35.1136C187.197 35.1136 187.516 35.0227 187.697 34.9545L187.425 33.75C187.311 33.7727 187.129 33.8182 186.834 33.8182C186.243 33.8182 185.675 33.6364 185.675 32.5V27.4091H187.538V26.2727ZM192.124 35.2045C193.646 35.2045 194.442 34.3864 194.714 33.8182H194.783V35H196.124V29.25C196.124 26.4773 194.01 26.1591 192.896 26.1591C191.578 26.1591 190.078 26.6136 189.396 28.2045L190.669 28.6591C190.964 28.0227 191.663 27.3409 192.942 27.3409C194.175 27.3409 194.783 27.9943 194.783 29.1136V29.1591C194.783 29.8068 194.124 29.75 192.533 29.9545C190.913 30.1648 189.146 30.5227 189.146 32.5227C189.146 34.2273 190.464 35.2045 192.124 35.2045ZM192.328 34C191.26 34 190.487 33.5227 190.487 32.5909C190.487 31.5682 191.419 31.25 192.464 31.1136C193.033 31.0455 194.555 30.8864 194.783 30.6136V31.8409C194.783 32.9318 193.919 34 192.328 34ZM202.116 35.1818C204.048 35.1818 205.321 34 205.548 32.4545H204.207C203.957 33.4091 203.162 33.9773 202.116 33.9773C200.526 33.9773 199.503 32.6591 199.503 30.6364C199.503 28.6591 200.548 27.3636 202.116 27.3636C203.298 27.3636 204.003 28.0909 204.207 28.8864H205.548C205.321 27.25 203.935 26.1591 202.094 26.1591C199.73 26.1591 198.162 28.0227 198.162 30.6818C198.162 33.2955 199.662 35.1818 202.116 35.1818ZM208.849 29.75C208.849 28.2273 209.821 27.3636 211.145 27.3636C212.406 27.3636 213.168 28.1591 213.168 29.5455V35H214.509V29.4545C214.509 27.2102 213.315 26.1591 211.531 26.1591C210.156 26.1591 209.372 26.733 208.963 27.6364H208.849V23.3636H207.509V35H208.849V29.75ZM216.962 35H218.303V29.5455C218.303 28.267 219.234 27.3636 220.28 27.3636C221.297 27.3636 222.007 28.0284 222.007 29.0227V35H223.371V29.3182C223.371 28.1932 224.075 27.3636 225.303 27.3636C226.257 27.3636 227.075 27.8693 227.075 29.1591V35H228.416V29.1591C228.416 27.108 227.314 26.1591 225.757 26.1591C224.507 26.1591 223.592 26.733 223.143 27.6364H223.053C222.621 26.7045 221.859 26.1591 220.712 26.1591C219.575 26.1591 218.734 26.7045 218.371 27.6364H218.257V26.2727H216.962V35ZM234.527 35.1818C236.3 35.1818 237.595 34.2955 238.004 32.9773L236.709 32.6136C236.368 33.5227 235.578 33.9773 234.527 33.9773C232.953 33.9773 231.868 32.9602 231.805 31.0909H238.141V30.5227C238.141 27.2727 236.209 26.1591 234.391 26.1591C232.027 26.1591 230.459 28.0227 230.459 30.7045C230.459 33.3864 232.004 35.1818 234.527 35.1818ZM231.805 29.9318C231.896 28.5739 232.857 27.3636 234.391 27.3636C235.845 27.3636 236.777 28.4545 236.777 29.9318H231.805ZM241.521 29.75C241.521 28.2273 242.464 27.3636 243.749 27.3636C244.993 27.3636 245.749 28.1761 245.749 29.5455V35H247.089V29.4545C247.089 27.2273 245.902 26.1591 244.135 26.1591C242.817 26.1591 241.999 26.75 241.589 27.6364H241.476V26.2727H240.18V35H241.521V29.75ZM253.335 26.2727H251.472V24.1818H250.131V26.2727H248.812V27.4091H250.131V32.8636C250.131 34.3864 251.358 35.1136 252.494 35.1136C252.994 35.1136 253.312 35.0227 253.494 34.9545L253.222 33.75C253.108 33.7727 252.926 33.8182 252.631 33.8182C252.04 33.8182 251.472 33.6364 251.472 32.5V27.4091H253.335V26.2727Z" fill="#91919F"/>
</svg>